<svg width="125" height="22" viewBox="0 0 125 22" xmlns="http://www.w3.org/2000/svg">
<path d="M0.359375 22V0.90909H9.46307C11.0284 0.90909 12.3981 1.21804 13.5721 1.83594C14.7461 2.45383 15.6592 3.32232 16.3114 4.44141C16.9637 5.56049 17.2898 6.86837 17.2898 8.36506C17.2898 9.87547 16.9534 11.1834 16.2805 12.2887C15.6146 13.3941 14.6774 14.2454 13.4691 14.8427C12.2676 15.44 10.8636 15.7386 9.2571 15.7386H3.8196V11.2898H8.10369C8.77652 11.2898 9.34979 11.1731 9.82351 10.9396C10.3041 10.6993 10.6714 10.3595 10.9254 9.9201C11.1863 9.4807 11.3168 8.96236 11.3168 8.36506C11.3168 7.76089 11.1863 7.24597 10.9254 6.82031C10.6714 6.38778 10.3041 6.05824 9.82351 5.83168C9.34979 5.59825 8.77652 5.48153 8.10369 5.48153H6.08523V22H0.359375ZM25.168 22V0.90909H30.8938V17.3864H39.4208V22H25.168ZM52.9914 22H46.8124L53.7741 0.90909H61.6008L68.5624 22H62.3834L57.7698 6.71733H57.605L52.9914 22ZM51.838 13.679H63.4545V17.9631H51.838V13.679ZM75.506 0.90909H81.891L86.0103 9.47727H86.1751L90.2944 0.90909H96.6793L88.935 15.3679V22H83.2504V15.3679L75.506 0.90909ZM103.458 0.90909H109.843L113.962 9.47727H114.127L118.247 0.90909H124.631L116.887 15.3679V22H111.203V15.3679L103.458 0.90909Z" fill="white"/>
</svg>
